<svg width="48" height="54" viewBox="0 0 48 54" fill="none" xmlns="http://www.w3.org/2000/svg">
<path d="M20.9547 41.8793C20.9252 41.876 20.8957 41.8739 20.8672 41.8739C20.6481 41.8739 20.4701 41.9713 20.3278 42.1358C20.115 42.3815 19.9823 42.7722 19.9001 43.2138C19.819 43.6554 19.7895 44.1467 19.7895 44.5916C19.7895 45.1067 19.8285 45.5602 19.8696 45.8005C20.0265 46.7107 20.3774 47.7011 20.7113 48.5583C20.9578 49.1914 21.1749 49.9577 21.5468 50.5303C21.6332 50.6623 21.709 50.7532 21.7817 50.8117C21.8544 50.8701 21.925 50.8961 21.9945 50.8961C22.1041 50.8961 22.2084 50.8355 22.3285 50.7575C22.4496 50.6785 22.5877 50.58 22.7625 50.4945C23.2282 50.2683 23.8814 50.0724 24.3839 49.9393C24.8485 49.8159 25.3247 49.7954 25.7935 49.6254C26.3941 49.4079 26.9714 49.0983 27.593 48.975C27.7605 48.9414 27.9427 48.9392 28.1145 48.9208L28.1292 48.9187L28.1313 48.9035C28.1355 48.8656 28.1376 48.8278 28.1376 48.7899C28.1376 48.4673 27.9965 48.1156 27.8342 47.7714C27.672 47.4283 27.4866 47.0939 27.396 46.8136C27.2032 46.2161 27.0831 45.5754 27.0831 44.939C27.0831 44.5645 27.1242 44.1922 27.2169 43.8318C27.4023 43.1088 27.7531 42.4096 28.0492 41.7191C28.1271 41.5362 28.2525 41.3251 28.3589 41.1065C28.4642 40.8879 28.5517 40.6606 28.5517 40.4419C28.5517 40.4311 28.5517 40.4192 28.5506 40.4084L28.5496 40.39L28.5317 40.3889C28.4822 40.3868 28.4316 40.3857 28.3821 40.3857C27.4708 40.3857 26.5026 40.7623 25.6208 40.9625C24.0268 41.3251 22.3738 41.5968 20.8272 42.1563L20.8399 42.1931C22.3822 41.6347 24.0331 41.363 25.6292 41.0004C26.5142 40.7991 27.4802 40.4246 28.3821 40.4246C28.4316 40.4246 28.4811 40.4257 28.5306 40.4279L28.5317 40.4084L28.5127 40.4095C28.5127 40.4203 28.5138 40.4311 28.5138 40.4409C28.5138 40.6487 28.4295 40.8705 28.3241 41.0881C28.2188 41.3046 28.0934 41.5156 28.0133 41.7018C27.7183 42.3912 27.3654 43.0925 27.1789 43.8209C27.0852 44.1857 27.0441 44.5613 27.0441 44.939C27.0441 45.5797 27.1652 46.2248 27.3591 46.8255C27.4518 47.1123 27.6372 47.4467 27.7995 47.7887C27.9617 48.1307 28.0997 48.4793 28.0987 48.7899C28.0987 48.8267 28.0966 48.8635 28.0923 48.8992L28.1113 48.9014L28.1092 48.8819C27.9406 48.9003 27.7563 48.9024 27.5845 48.936C26.9556 49.0615 26.3772 49.3722 25.7798 49.5886C25.3184 49.7553 24.8433 49.777 24.3734 49.9014C23.8698 50.0345 23.2156 50.2304 22.7446 50.4588C22.5666 50.5454 22.4265 50.6461 22.3064 50.724C22.1863 50.8019 22.0872 50.8571 21.9924 50.856C21.9313 50.856 21.8713 50.8344 21.8028 50.7803C21.7354 50.7262 21.6606 50.6385 21.5752 50.5086C21.2075 49.9436 20.9905 49.1795 20.744 48.5442C20.41 47.6881 20.0602 46.6999 19.9043 45.794C19.8632 45.557 19.8243 45.1057 19.8253 44.5916C19.8253 44.0006 19.8769 43.3274 20.0339 42.8047C20.1119 42.5427 20.2172 42.3198 20.3531 42.1628C20.4901 42.0059 20.6565 41.915 20.8641 41.915C20.8915 41.915 20.9189 41.9161 20.9473 41.9193L20.9547 41.8793Z" fill="white"/>
<path d="M10.7787 16.3279C10.8197 16.4448 10.8408 16.5681 10.8408 16.6937C10.8408 16.9794 10.7291 17.2576 10.5321 17.4589C10.5121 17.4795 10.4921 17.5 10.4721 17.5206C10.3088 17.6883 10.096 17.7955 9.86946 17.8269V18.814C9.86946 19.2296 10.1982 19.5673 10.6027 19.5673C11.0073 19.5673 11.336 19.2296 11.336 18.814V17.0574C11.337 16.7045 11.0989 16.409 10.7787 16.3279Z" fill="white"/>
<path d="M20.3257 21.694C20.3342 21.7481 20.3384 21.8022 20.3384 21.8574C20.3384 22.1432 20.2267 22.4213 20.0297 22.6226C20.017 22.6356 20.0034 22.6508 19.9897 22.6627C19.917 22.7244 19.8443 22.7882 19.7653 22.8402C19.7621 22.8424 19.7589 22.8445 19.7547 22.8456C19.4629 22.9733 19.5229 22.969 19.2016 22.9993C19.189 23.0004 19.1774 23.0004 19.1647 23.0004C19.1553 23.0004 19.1458 23.0004 19.1352 22.9993V24.0372C19.1352 24.4528 19.4639 24.7905 19.8685 24.7905C20.2731 24.7905 20.6018 24.4528 20.6018 24.0372V22.2817C20.6018 22.0436 20.4932 21.8315 20.3257 21.694Z" fill="white"/>
<path d="M42.8892 18.3096H39.7718C39.7718 18.3096 40.1553 14.7412 40.1553 13.371C40.1553 12.0008 42.4572 11.6685 42.4572 13.371C42.4572 14.6156 42.8892 18.3096 42.8892 18.3096Z" fill="white"/>
<path d="M42.8892 17.9156C41.8504 17.9156 40.8105 17.9156 39.7718 17.9156C39.8992 18.0466 40.0278 18.1786 40.1553 18.3096C40.2785 17.158 40.3881 16.0043 40.4703 14.8483C40.4955 14.4923 40.5177 14.1351 40.5303 13.7779C40.5356 13.6426 40.5387 13.5073 40.5387 13.371C40.5387 13.3353 40.5408 13.2995 40.544 13.2627C40.5366 13.3537 40.5482 13.2454 40.5514 13.2303C40.5577 13.1978 40.5672 13.1653 40.5777 13.1329C40.584 13.1123 40.5914 13.0917 40.5998 13.0712C40.5819 13.1155 40.5819 13.1166 40.5998 13.0766C40.6135 13.0474 40.6304 13.0203 40.6462 12.9932C40.6536 12.9803 40.7147 12.8958 40.6588 12.9694C40.6968 12.9196 40.741 12.8742 40.7874 12.832C40.7979 12.8222 40.879 12.7584 40.8063 12.8136C40.8316 12.7941 40.858 12.7779 40.8843 12.7605C40.9106 12.7432 40.938 12.7281 40.9654 12.7129C41.0581 12.6621 40.9591 12.7108 41.016 12.6869C41.0739 12.6631 41.134 12.6458 41.1951 12.6307C41.2256 12.6231 41.2562 12.6177 41.2867 12.6123C41.1898 12.6296 41.2899 12.6133 41.3078 12.6112C41.3689 12.6058 41.4311 12.6079 41.4922 12.6112C41.5954 12.6177 41.41 12.596 41.5111 12.6123C41.5512 12.6188 41.5902 12.6285 41.6291 12.6404C41.7872 12.6848 41.8957 12.7692 41.9852 12.9305C41.9958 12.951 42.0063 12.9705 42.0158 12.9922C41.9789 12.9142 42.0242 13.0214 42.0274 13.0311C42.039 13.0668 42.0474 13.1036 42.0558 13.1404C42.0558 13.1426 42.0758 13.2692 42.0674 13.1956C42.0822 13.3201 42.0758 13.4467 42.079 13.5712C42.0948 14.1892 42.1517 14.8061 42.2075 15.4209C42.2939 16.3842 42.3961 17.3474 42.5078 18.3085C42.5331 18.5217 42.6637 18.7025 42.8913 18.7025C43.0809 18.7025 43.299 18.5228 43.2747 18.3085C43.1441 17.1937 43.0282 16.0768 42.9345 14.9587C42.905 14.6102 42.8786 14.2617 42.8607 13.9121C42.8439 13.5983 42.8576 13.2811 42.8038 12.9705C42.6858 12.28 42.0885 11.846 41.4321 11.8222C40.8316 11.8005 40.1942 12.149 39.9256 12.7097C39.7781 13.0171 39.7791 13.3342 39.7697 13.6686C39.7602 14.016 39.7391 14.3635 39.7149 14.7098C39.6338 15.9101 39.5189 17.1093 39.3914 18.3053L39.3904 18.3107C39.3672 18.525 39.5821 18.7046 39.7739 18.7046C40.8127 18.7046 41.8525 18.7046 42.8913 18.7046C43.3833 18.7025 43.3833 17.9156 42.8892 17.9156Z" fill="white"/>
<path fill-rule="evenodd" clip-rule="evenodd" d="M18.3883 52.2306C18.3872 52.2197 18.3946 52.2133 18.403 52.2122C18.4178 52.21 18.4252 52.2208 18.4231 52.2349C18.422 52.2436 18.4157 52.2511 18.4041 52.249C18.3946 52.2468 18.3893 52.2414 18.3883 52.2306Z" fill="white"/>
<path fill-rule="evenodd" clip-rule="evenodd" d="M18.2039 50.7554C18.205 50.7662 18.1976 50.7727 18.1892 50.7738C18.1744 50.7759 18.1671 50.7651 18.1692 50.7521C18.1702 50.7435 18.1765 50.7359 18.1881 50.7381C18.1976 50.7402 18.2029 50.7445 18.2039 50.7554Z" fill="white"/>
<path fill-rule="evenodd" clip-rule="evenodd" d="M18.4062 50.1319C18.4073 50.1428 18.3999 50.1493 18.3915 50.1504C18.3767 50.1525 18.3693 50.1417 18.3714 50.1287C18.3725 50.12 18.3788 50.1125 18.3904 50.1146C18.3999 50.1157 18.4051 50.1211 18.4062 50.1319Z" fill="white"/>
<path d="M47.4341 32.0605C47.1654 30.9251 46.6608 29.8569 46.0318 28.8893C45.9539 28.7691 45.877 28.6479 45.8032 28.5256C45.7158 28.3849 45.5799 28.2702 45.4671 28.1522C45.4534 28.1403 45.444 28.1306 45.4366 28.123C45.4018 28.0386 45.3597 27.9628 45.2912 27.8935C45.188 27.7853 45.0826 27.6782 44.9815 27.5656C44.8024 27.3708 44.7128 27.255 44.5822 27.0104C44.4673 26.795 44.4547 26.5547 44.44 26.2982C44.4062 25.7008 44.3578 25.125 44.2314 24.5383C44.1228 24.0383 43.9732 23.5469 43.7857 23.0707C43.3927 22.062 42.8449 21.1453 42.1443 20.3314C41.9831 20.143 41.8103 19.9666 41.6344 19.7935C41.5269 19.6885 41.4174 19.59 41.2952 19.5045C41.193 19.4309 41.115 19.3703 40.9559 19.2599C40.4892 18.9319 39.8908 18.7555 39.3251 18.8248C38.9574 18.8702 38.6877 18.9612 38.477 19.2967C38.4464 19.3465 38.4222 19.4027 38.398 19.4558C38.398 19.4558 38.3253 19.5651 38.3348 19.5586C38.2442 19.6701 38.1441 19.7729 38.0429 19.8725C37.8617 20.0521 37.6731 20.2221 37.5035 20.4147C37.2791 20.6701 37.0863 20.9667 36.8862 21.2427C36.7397 21.4429 36.5954 21.641 36.45 21.8358C36.411 21.4278 36.3531 21.0165 36.2709 20.603C36.0054 19.3172 35.5282 18.0336 34.8381 16.8712L34.7085 16.6536C34.6874 16.6169 34.6653 16.5801 34.6442 16.5443L34.5747 16.4394C34.4809 16.2987 34.3861 16.159 34.2934 16.0172C34.1923 15.883 34.0911 15.7477 33.9921 15.6135C33.9668 15.58 33.9426 15.5454 33.9163 15.5129L33.8351 15.4166L33.675 15.2228C33.6213 15.159 33.5696 15.094 33.5149 15.0302L33.3452 14.8462C33.3294 14.8267 33.3115 14.8094 33.2936 14.7899C33.3579 14.6156 33.3948 14.436 33.3948 14.2466C33.3948 13.9922 33.3747 13.1545 33.3305 11.6945L40.8127 9.02654V12.056C40.8127 12.3958 41.0718 12.5744 41.3289 12.5744C41.587 12.5744 41.8472 12.3958 41.8472 12.056V8.65747L43.9332 7.91392L24.0299 0.0183992L23.9846 0L0 8.55357L14.5366 14.3191C14.5566 14.7282 14.7368 15.1016 15.0497 15.436C14.8073 15.7261 14.5798 16.0292 14.3649 16.3398C14.3649 16.3409 14.3638 16.3409 14.3638 16.343C13.9624 15.975 13.5515 15.6341 13.1301 15.3246C13.0606 15.2737 12.99 15.2217 12.9184 15.173C12.8499 15.1243 12.7814 15.0778 12.7108 15.0291C12.0197 14.5637 11.238 14.1232 10.2487 13.6437C10.1971 13.6188 10.1465 13.595 10.0949 13.569C9.99483 13.5236 9.89474 13.476 9.79255 13.4294C9.74093 13.4056 9.6893 13.3829 9.63557 13.3591C9.5829 13.3374 9.53022 13.3136 9.47649 13.2898C9.42171 13.266 9.36482 13.2411 9.31003 13.2184C9.20257 13.1718 9.09195 13.1275 8.98133 13.082C8.90759 13.0528 8.83489 13.0214 8.76115 12.9911C8.58626 12.9164 8.40716 12.8406 8.22595 12.78C8.04158 12.7162 7.853 12.6686 7.66126 12.6512C7.50639 12.6372 7.32729 12.7465 7.26303 12.8937L6.7921 13.9695C6.70887 14.1232 6.72468 14.3093 6.8353 14.4684C6.84056 14.4793 6.85005 14.4901 6.85847 14.502C7.09552 14.8029 6.95856 15.1514 6.81317 15.5205C6.79421 15.5692 6.77524 15.6157 6.75839 15.6633C6.71941 15.7661 6.68043 15.8668 6.64039 15.9675C6.45919 16.4372 6.26955 16.9231 6.19054 17.4437C6.0441 18.4265 6.298 19.4082 6.90483 20.208C7.16189 20.5478 7.4769 20.8552 7.84352 21.1225C8.32815 21.4808 8.90232 21.7719 9.55129 21.9895C9.71459 22.0447 9.8821 22.0945 10.0549 22.1388C10.6417 22.2936 11.2433 22.325 11.8406 22.2341C11.9755 22.2135 12.1124 22.1811 12.2515 22.1388V22.1443C12.2336 22.3174 12.2188 22.4895 12.2083 22.6638C12.1683 22.6703 12.1272 22.6778 12.0871 22.6843C12.0787 22.6854 12.0671 22.6876 12.0513 22.6887C11.9965 22.6952 11.9407 22.6995 11.8849 22.7038C11.6847 22.7179 11.4824 22.7146 11.2812 22.7038C10.8819 22.68 10.4868 22.588 10.0675 22.4462C9.95479 22.4073 9.83575 22.4159 9.72829 22.456C9.63031 22.4278 9.52495 22.4246 9.41855 22.4462C8.7917 22.5761 8.31339 23.0079 8.09426 23.6195C7.86038 24.2764 8.06476 25.0773 8.39557 25.6585C8.98344 26.6868 10.1465 27.1294 11.2517 27.1998C11.396 27.2095 11.5277 27.1489 11.6299 27.0515C11.6425 27.0699 11.6531 27.0872 11.6647 27.1056C11.7079 27.1705 11.7521 27.2366 11.7964 27.3015C11.7384 27.3296 11.6847 27.3664 11.6394 27.4173C10.214 29.0451 11.3328 31.7174 13.0806 32.554C13.1143 32.5692 13.148 32.5843 13.1828 32.5995C13.0016 32.6947 12.8246 32.8008 12.6571 32.9187C12.4306 33.0778 12.2167 33.2575 12.0176 33.4491C11.927 33.5357 11.8427 33.6287 11.7605 33.7229C11.7184 33.7694 11.6794 33.8192 11.6394 33.8679C11.6573 33.8614 11.6689 33.8571 11.6742 33.856C11.6689 33.8614 11.6583 33.8669 11.6404 33.8755C11.5878 33.9145 11.5372 33.9556 11.4856 33.9967C11.2907 34.197 11.1421 34.4892 11.0009 34.7305C10.8598 34.9719 10.7344 35.2241 10.6206 35.4795C10.3931 35.9882 10.214 36.5164 10.0875 37.0597C9.84312 38.1117 9.7915 39.2092 9.87789 40.2828C9.92214 40.8457 10.0043 41.4052 10.1107 41.9572C10.2119 42.48 10.3246 43.0179 10.5026 43.5179C10.8703 44.545 11.257 45.5375 11.8027 46.4802C12.3158 47.3677 12.9342 48.1957 13.6242 48.9457C14.3196 49.7023 15.1087 50.369 15.9462 50.9502C16.9028 51.6104 17.9521 52.1039 19.0204 52.5369C20.1087 52.9774 21.2434 53.3529 22.3991 53.5543C23.6338 53.7718 24.8791 53.9569 26.1328 53.9937C27.377 54.0294 28.6465 53.9103 29.877 53.7253C30.4923 53.6322 31.0917 53.4698 31.7028 53.3519C32.3128 53.2339 32.8733 52.9839 33.4464 52.7501C34.6 52.2782 35.7462 51.789 36.8925 51.2998C37.4645 51.0541 38.0366 50.8095 38.6097 50.566C39.1986 50.3159 39.796 50.0833 40.3712 49.7975C42.1148 48.9306 43.7151 47.6686 44.9457 46.1285C47.0738 43.4681 48.0146 40.0718 47.9998 36.6603C47.9903 35.1148 47.7902 33.5627 47.4341 32.0605ZM2.94988 8.6066L23.9657 1.11154L40.8221 7.79595C40.8179 7.82409 40.8137 7.85115 40.8137 7.88145V7.92041L19.9675 15.3549L2.94988 8.6066ZM32.3802 14.2455C32.3802 15.2066 29.1027 16.6028 23.9636 16.6028C22.6035 16.6028 21.375 16.5032 20.3015 16.3419L32.3265 12.0538C32.3623 13.2844 32.3802 14.0214 32.3802 14.2455ZM19.0541 16.1114C17.5718 15.7824 16.5067 15.3289 15.962 14.8851L19.0541 16.1114ZM14.7863 20.4656L14.9043 20.3573C14.919 20.3454 14.938 20.327 14.9591 20.3065C15.1424 20.1322 15.2635 20.037 15.3215 20.0218C15.3225 20.0229 15.3257 20.0229 15.3267 20.0251C15.352 20.037 15.3784 20.051 15.4047 20.0662C15.4616 20.0976 15.5206 20.1344 15.5743 20.1766C15.6017 20.1972 15.627 20.2199 15.6502 20.2426C15.6512 20.2459 15.6533 20.248 15.6544 20.2491C15.6586 20.2708 15.6639 20.2902 15.6723 20.3086C15.6765 20.3433 15.6733 20.4125 15.6712 20.4591L15.6702 20.5002C15.6607 20.7134 15.6186 20.9331 15.5785 21.1442C15.5648 21.2156 15.5501 21.2881 15.5385 21.3596C15.5385 21.3628 15.5374 21.3661 15.5374 21.3693C15.3963 21.2687 15.2361 21.1886 15.0528 21.1388C14.3975 20.9602 13.8623 21.3585 13.4378 21.8206C13.4515 21.7254 13.4652 21.628 13.481 21.5327C13.481 21.5295 13.482 21.5284 13.482 21.5263C13.9529 21.2178 14.3754 20.8357 14.7863 20.4656ZM11.808 20.7059C11.2222 20.9266 10.5985 20.892 10.0222 20.721C9.62609 20.603 9.25525 20.4223 8.93603 20.2177C8.85807 20.1679 8.78432 20.1171 8.71374 20.064C8.71268 20.064 8.70952 20.063 8.70847 20.0608C8.66844 20.0316 8.63051 20.0013 8.59258 19.9699C8.58942 19.9666 8.58837 19.9655 8.58731 19.9655C7.94993 19.4374 7.63176 18.6787 7.68971 17.8128C7.72026 17.3582 7.85406 16.8658 8.08794 16.3506C8.24808 15.9978 8.46616 15.606 8.8665 15.3787C9.05613 15.2726 9.25841 15.2347 9.44489 15.2347C9.60818 15.2347 9.76094 15.2629 9.88631 15.2964C9.96111 15.317 10.037 15.3397 10.1107 15.3657C10.1465 15.3776 10.1834 15.3906 10.2192 15.4047C10.3636 15.4555 10.5026 15.5161 10.6385 15.58C10.9504 15.7261 11.2422 15.8949 11.4887 16.0443C11.7711 16.2142 12.1061 16.4231 12.4496 16.6677C12.518 16.7164 12.5865 16.7673 12.6571 16.8192C12.7972 16.9231 12.9373 17.0335 13.0732 17.1515C13.4272 17.4546 13.7612 17.8085 13.816 18.3388C13.8729 18.8713 13.5189 19.3032 13.1206 19.7361C12.6855 20.2156 12.2431 20.5403 11.808 20.7059ZM10.9167 25.9822C10.8629 25.9724 10.8103 25.9616 10.7576 25.9486C10.6701 25.9291 10.5827 25.9053 10.4974 25.8793C10.4447 25.8642 10.3952 25.8458 10.3435 25.8285C10.3372 25.8252 10.2624 25.7949 10.2477 25.7917C10.0833 25.717 9.92846 25.6228 9.78202 25.5178C9.77675 25.5135 9.77359 25.5124 9.77043 25.5092C9.7641 25.5027 9.75252 25.493 9.73566 25.4778C9.69563 25.4432 9.6577 25.4064 9.61977 25.3685C9.58184 25.3295 9.54708 25.2895 9.51231 25.2494C9.50178 25.2375 9.49335 25.2289 9.48808 25.2213C9.48281 25.2148 9.47755 25.2072 9.47228 25.1975C9.41855 25.1228 9.37219 25.0427 9.33005 24.9626C9.30898 24.9237 9.29107 24.8836 9.27316 24.8436C9.28475 24.8522 9.29845 24.8598 9.31319 24.8695C9.40591 24.9258 9.54286 24.994 9.71143 25.0773C9.87999 25.1618 10.0791 25.2613 10.2824 25.3912C10.3836 25.4562 10.4858 25.5276 10.5816 25.612C10.6312 25.6531 10.6754 25.7008 10.7239 25.7451C10.7681 25.7949 10.8145 25.8415 10.8545 25.8956C10.8756 25.9216 10.8977 25.9486 10.9167 25.9768L10.9209 25.9811C10.9188 25.9822 10.9167 25.9822 10.9167 25.9822ZM11.5888 25.888C11.5372 25.8241 11.4866 25.7614 11.435 25.6986C11.3771 25.6337 11.3202 25.5644 11.257 25.5059C11.1969 25.4442 11.1305 25.3901 11.0673 25.3371C11.0009 25.2873 10.9377 25.2375 10.8714 25.1964C10.7397 25.1109 10.608 25.046 10.4816 24.9908C10.2287 24.8825 10.0001 24.8219 9.81046 24.7808C9.61977 24.7418 9.46701 24.7213 9.35955 24.7158C9.30266 24.7126 9.25947 24.7148 9.22891 24.7202C9.22786 24.7158 9.22786 24.7137 9.22786 24.7137C9.19415 24.6098 9.16991 24.5026 9.152 24.3944C9.15622 24.3944 9.14885 24.2764 9.14674 24.2559C9.14779 24.2559 9.15622 24.1152 9.152 24.1162C9.16043 24.0773 9.16781 24.0383 9.17729 24.0004C9.18361 23.9766 9.18677 23.9615 9.18993 23.9506C9.19415 23.9442 9.19836 23.9344 9.20363 23.9225C9.21943 23.8879 9.23839 23.8565 9.26157 23.8262C9.26157 23.8327 9.32057 23.7602 9.33005 23.7504C9.33637 23.7439 9.34269 23.7385 9.34585 23.7342C9.35217 23.7299 9.36166 23.7244 9.37325 23.7158C9.40275 23.6963 9.43224 23.6801 9.46174 23.6628C9.4628 23.6628 9.4628 23.6638 9.4628 23.666C9.49756 23.7115 9.60292 23.6844 9.73145 23.705C9.79571 23.7158 9.8684 23.7363 9.95163 23.7731C10.0349 23.8089 10.1276 23.8597 10.2277 23.9247C10.3277 23.9885 10.432 24.0654 10.5448 24.1487C10.6575 24.2321 10.7734 24.3219 10.9135 24.4128C10.9714 24.4528 11.0294 24.4929 11.0873 24.5329C11.1158 24.5524 11.1442 24.5697 11.1716 24.5892C11.199 24.6098 11.2253 24.6303 11.2527 24.6509C11.3054 24.691 11.3602 24.7288 11.4097 24.7689C11.4613 24.81 11.5098 24.8501 11.5572 24.889C11.6057 24.9258 11.6541 24.968 11.7037 25.0102C11.7521 25.0546 11.8048 25.0947 11.8543 25.1412C11.9038 25.1867 11.9565 25.2343 12.0081 25.2808C12.0355 25.3025 12.0608 25.3274 12.085 25.3523L12.1619 25.4269L12.2399 25.5005C12.2652 25.5254 12.2894 25.5514 12.3158 25.5763C12.3653 25.6272 12.4169 25.6769 12.4654 25.7267C12.5138 25.7776 12.5623 25.8296 12.6107 25.8783L12.6803 25.9497L12.7488 26.0244C12.8394 26.1207 12.9268 26.2094 13.0069 26.2885C13.088 26.3675 13.1607 26.4389 13.226 26.4941C13.3577 26.6045 13.4557 26.6586 13.501 26.6283C13.5463 26.5969 13.5336 26.4833 13.4778 26.3155C13.4493 26.2322 13.4135 26.1348 13.3651 26.0276C13.3155 25.9216 13.2576 25.8047 13.1933 25.6834C13.1775 25.6531 13.1607 25.6217 13.1438 25.5893C13.1259 25.559 13.108 25.5276 13.089 25.4951C13.0511 25.4334 13.0111 25.3685 12.971 25.3025C12.9279 25.2386 12.8836 25.1758 12.8383 25.1098C12.8151 25.0784 12.7941 25.0449 12.7698 25.0146L12.6961 24.9204L12.6202 24.8262C12.5949 24.7959 12.5707 24.7646 12.5423 24.7353C12.4896 24.6758 12.4359 24.6174 12.3821 24.5611C12.3284 24.5048 12.2705 24.4528 12.2157 24.4009C12.1609 24.3479 12.105 24.2981 12.0492 24.2548C11.9923 24.2104 11.9333 24.1649 11.8733 24.1195C11.8111 24.074 11.7458 24.0329 11.6794 23.9896C11.6468 23.969 11.613 23.9485 11.5793 23.9258C11.5593 23.9149 11.5393 23.9041 11.5172 23.8922C11.7437 23.8954 11.9691 23.8825 12.1914 23.8532C12.2041 23.8576 12.2157 23.8597 12.2262 23.863C12.5085 23.9409 12.6908 23.9539 12.7098 23.9019C12.7203 23.876 12.6866 23.8327 12.6213 23.7753C12.7224 23.7515 12.8236 23.7244 12.9226 23.692C13.2734 23.5772 13.5842 23.4041 13.8392 23.1292C13.9656 22.9928 14.0815 22.8445 14.2026 22.7038C14.2658 22.6302 14.3322 22.5588 14.4007 22.4895C14.4333 22.4549 14.4681 22.4235 14.5029 22.391C14.5092 22.3867 14.5124 22.3845 14.5166 22.3813C14.5345 22.3694 14.5503 22.3553 14.5693 22.3445C14.5893 22.3304 14.6124 22.3196 14.6335 22.3077C14.6493 22.3012 14.6883 22.2839 14.7052 22.2785C14.7083 22.2785 14.7094 22.2785 14.7104 22.2774H14.721C14.7304 22.2774 14.7389 22.2763 14.7441 22.2763C14.7452 22.2763 14.7452 22.2763 14.7473 22.2763C14.7599 22.2795 14.8147 22.3012 14.8337 22.3066C14.8621 22.3218 14.8885 22.3358 14.9159 22.3521C14.919 22.3553 14.919 22.3553 14.9201 22.3553C14.9211 22.3564 14.9211 22.3564 14.9232 22.3586C14.9654 22.3943 15.0001 22.4365 15.0349 22.4776C15.0391 22.483 15.0433 22.4895 15.0497 22.4993C15.0749 22.5361 15.0981 22.575 15.1213 22.614C15.1698 22.6952 15.2098 22.7817 15.2509 22.8672C15.2646 22.8965 15.2762 22.9257 15.2888 22.9538C15.2899 22.9582 15.3215 23.0339 15.3246 23.0469C15.3573 23.1302 15.3847 23.2147 15.4131 23.2969C15.4679 23.8522 15.628 24.3976 15.8798 24.8793C16.0747 25.2538 16.3413 25.5741 16.6194 25.8566C16.7279 25.9681 16.8396 26.0742 16.9502 26.1727C16.9513 26.1727 16.9534 26.1737 16.9555 26.177C17.0082 26.2278 17.0619 26.2755 17.1146 26.322C17.1493 26.3523 17.1831 26.3826 17.2178 26.4118C17.2189 26.4118 17.222 26.4129 17.2231 26.4162C17.3253 26.5049 17.4275 26.5872 17.5286 26.6662C17.6687 26.7755 17.8089 26.8762 17.9479 26.9692C18.0153 27.0147 18.0838 27.058 18.1512 27.0991C18.2229 27.1435 18.2924 27.1846 18.363 27.2236C18.4652 27.2788 18.5674 27.3329 18.6696 27.3816C18.6706 27.3827 18.6727 27.3848 18.6738 27.3848C19.2575 27.6608 19.8401 27.8005 20.4163 27.8005C20.4174 27.8005 20.4174 27.8005 20.4174 27.8005C20.4659 27.8005 20.5143 27.7994 20.5628 27.7961C20.567 27.7972 20.5691 27.7994 20.5733 27.8005C20.6418 27.8264 20.6492 27.8351 20.7693 27.8946C21.119 28.0689 21.4383 28.2702 21.6816 28.5397C21.6922 28.5505 21.7101 28.5732 21.7259 28.5938C21.7448 28.6219 21.7638 28.649 21.7828 28.6771C21.8281 28.7518 21.8692 28.8319 21.905 28.912C21.9176 28.9423 21.9345 28.9867 21.9408 29.0072C21.9587 29.0581 21.9735 29.1111 21.9882 29.162C22.0124 29.2551 22.0314 29.3482 22.0461 29.4423C22.0504 29.4759 22.0567 29.5289 22.0588 29.5527C22.063 29.609 22.0651 29.6664 22.0672 29.7227C22.0683 29.8417 22.0619 29.9619 22.0493 30.0809C22.0461 30.0993 22.044 30.1166 22.0409 30.1339C22.0314 30.1902 22.0198 30.2476 22.0061 30.3028C21.9829 30.3991 21.9524 30.4954 21.9187 30.5885C21.9039 30.6221 21.8734 30.6967 21.8607 30.7216C21.827 30.7898 21.788 30.8548 21.7491 30.9197C21.7332 30.9435 21.7185 30.9662 21.7016 30.9901C21.7006 30.9901 21.7006 30.9901 21.7006 30.9911C21.6553 31.0474 21.6068 31.1015 21.5552 31.1524C21.5257 31.1838 21.492 31.2119 21.4583 31.2412C21.433 31.2596 21.3403 31.3299 21.3087 31.3494C21.2507 31.3851 21.1917 31.4154 21.1306 31.4446C21.1148 31.4511 21.098 31.4587 21.0885 31.463C21.0485 31.4782 21.0074 31.4922 20.9673 31.5042C20.8936 31.528 20.8177 31.5442 20.7429 31.5604C20.7282 31.5637 20.6987 31.5669 20.6744 31.5713C20.6439 31.5756 20.6123 31.5778 20.5817 31.581C20.4574 31.5907 20.3352 31.5907 20.212 31.5842C20.1825 31.5529 20.1403 31.5161 20.0908 31.4803C19.9791 31.3862 19.82 31.2801 19.6747 31.1362C19.5293 30.9933 19.3944 30.8223 19.3007 30.6329C19.2048 30.4424 19.1489 30.2357 19.1121 30.043C19.1057 29.9932 19.0973 29.9435 19.0878 29.8915C19.0836 29.8385 19.0784 29.7854 19.072 29.7302C19.0668 29.6739 19.0668 29.6166 19.0626 29.5592C19.0594 29.53 19.0594 29.5008 19.0594 29.4726V29.3861C19.0594 29.3568 19.0562 29.3276 19.0594 29.2995C19.0604 29.2713 19.0626 29.2432 19.0647 29.2129C19.0657 29.1826 19.0689 29.1523 19.071 29.1231C19.0741 29.0927 19.0762 29.0635 19.0794 29.0332C19.0921 28.9174 19.1068 28.8038 19.1268 28.6999C19.1626 28.4899 19.2185 28.3167 19.2638 28.1868C19.3091 28.057 19.346 27.9661 19.3122 27.9206C19.2817 27.8773 19.1721 27.8892 19.0309 27.9855C18.8898 28.0797 18.7286 28.2648 18.6074 28.5007C18.5453 28.6187 18.4915 28.7486 18.4473 28.8839C18.4346 28.9185 18.4241 28.952 18.4146 28.9878C18.4041 29.0224 18.3946 29.057 18.3851 29.0917C18.3767 29.1263 18.3672 29.1631 18.3598 29.201C18.3514 29.2378 18.3462 29.2757 18.3409 29.3125L18.3251 29.4261C18.3209 29.4629 18.3156 29.5008 18.3145 29.5376C18.3103 29.6123 18.304 29.6869 18.3051 29.7616C18.3061 29.8363 18.3093 29.9099 18.3135 29.9813C18.323 30.0549 18.3325 30.1253 18.343 30.1924C18.3735 30.3666 18.4346 30.5528 18.5189 30.7325C18.4368 30.7822 18.3556 30.8288 18.2745 30.8764C18.1428 30.8526 17.9995 30.8223 17.8468 30.7758C17.6118 30.7076 17.3548 30.6167 17.084 30.503C16.8133 30.3883 16.5299 30.253 16.2391 30.1036C16.0937 30.03 15.9462 29.9521 15.7977 29.8731C15.6533 29.7919 15.5079 29.7097 15.3647 29.6274C15.0792 29.4564 14.7968 29.28 14.5387 29.0927C14.4744 29.0462 14.4091 28.9997 14.3459 28.9531C14.2827 28.9066 14.2237 28.8568 14.1626 28.8081C14.1036 28.7594 14.0414 28.7139 13.9845 28.6652C13.9277 28.6154 13.8729 28.5667 13.8181 28.5191C13.7907 28.4942 13.7644 28.4704 13.7359 28.4455L13.6938 28.4098L13.6537 28.3698C13.6 28.3167 13.5463 28.2648 13.4904 28.2107C13.463 28.1847 13.4357 28.1565 13.4083 28.1306C13.3798 28.1024 13.3545 28.0721 13.3271 28.0451C13.2745 27.9866 13.2207 27.9293 13.167 27.8697C13.1396 27.8405 13.1122 27.8134 13.0859 27.781C13.0606 27.7474 13.0343 27.716 13.0079 27.6847C12.9552 27.6208 12.9026 27.5559 12.8488 27.4909C12.7962 27.4271 12.7424 27.3621 12.6887 27.2972C12.636 27.229 12.5833 27.1619 12.5317 27.0937C12.32 26.8199 12.1093 26.5482 11.9049 26.282C11.8006 26.1467 11.6921 26.0157 11.5888 25.888ZM17.2263 21.5717C17.3095 21.3271 17.3927 21.1085 17.555 20.9375C17.6919 20.7914 17.89 20.6777 18.1439 20.5998C18.2524 20.5662 18.3641 20.5532 18.4778 20.5532C18.8603 20.5532 19.2553 20.7167 19.6135 20.8628C19.7589 20.9234 19.9054 20.9873 20.0508 21.0554C20.0539 21.0565 20.055 21.0587 20.056 21.0587C20.2014 21.1247 20.3458 21.1951 20.489 21.2697C20.7819 21.4202 21.0758 21.5858 21.3645 21.7644L21.413 21.7947C21.6753 21.9559 21.9566 22.1302 22.2073 22.3337C22.398 22.4917 22.5708 22.667 22.6993 22.8672C22.9048 23.1876 22.9606 23.587 22.8542 23.9896C22.7267 24.4745 22.3538 24.9388 22.0862 25.2462C21.7301 25.6521 21.354 25.941 20.9705 26.1045C20.6165 26.2538 20.2288 26.3134 19.819 26.2776C19.6725 26.2657 19.5314 26.2343 19.3913 26.1878C19.2996 26.1575 19.2069 26.1196 19.1142 26.0785C18.9719 26.0135 18.8245 25.9335 18.6717 25.8447C18.5168 25.7581 18.3598 25.6542 18.206 25.5373C18.1049 25.4594 18.0069 25.3771 17.911 25.2873C17.8626 25.2419 17.8152 25.1942 17.7688 25.1466C17.3021 24.6639 16.9428 24.0307 16.9176 23.2948C16.8997 22.7936 17.0008 22.2308 17.2263 21.5717ZM12.8552 30.9554C12.7056 30.7942 12.6497 30.7065 12.5296 30.5084C12.4801 30.424 12.4337 30.3374 12.3906 30.2497C12.3747 30.2151 12.3579 30.1816 12.3431 30.1469C12.3389 30.1372 12.3347 30.1285 12.3305 30.122C12.3273 30.1123 12.3221 30.0982 12.3147 30.0787C12.2473 29.9002 12.1988 29.7151 12.163 29.5289C12.1577 29.5051 12.1546 29.4802 12.1503 29.4575C12.1503 29.4586 12.1514 29.4586 12.1514 29.4586C12.1514 29.4467 12.1409 29.3547 12.1388 29.3471C12.1324 29.254 12.1324 29.1588 12.1345 29.0668C12.1409 28.8622 12.203 28.6425 12.3063 28.4531C12.2515 29.2215 12.8941 30.056 13.4462 30.4662C13.8434 30.7606 14.3543 30.9132 14.8347 30.9717C15.2804 31.0258 15.7766 31.0149 16.1811 30.7963C16.4245 30.8905 16.6658 30.9727 16.8997 31.0398C17.1609 31.1156 17.4138 31.1686 17.6487 31.2011C17.1989 31.4187 16.7374 31.594 16.2296 31.7152C15.4047 31.9144 14.5661 31.8754 13.7528 31.5723C13.4293 31.4533 13.1122 31.2325 12.8552 30.9554ZM46.7514 38.6107C46.7409 38.7059 46.7303 38.8012 46.7177 38.8986C46.7166 38.9083 46.7145 38.918 46.7145 38.9245C46.7135 38.9278 46.7135 38.9289 46.7135 38.931C46.7071 38.9797 46.6998 39.0263 46.6935 39.075C46.664 39.2828 46.6292 39.4884 46.5902 39.6941C46.5175 40.0924 46.4259 40.4874 46.3195 40.8792C46.213 41.2732 46.0877 41.6628 45.9465 42.0459C45.9128 42.139 45.878 42.231 45.8412 42.3219C45.8285 42.3512 45.8169 42.3815 45.8064 42.4107C45.8053 42.4118 45.7727 42.4897 45.7674 42.5016C45.6842 42.7007 45.5936 42.8956 45.5009 43.0904C45.3175 43.4681 45.1142 43.835 44.8972 44.1933C44.7897 44.3675 44.6781 44.5374 44.5622 44.7063C44.5042 44.7918 44.4452 44.8762 44.3841 44.9596C44.3609 44.9931 44.3388 45.0234 44.3146 45.0559C44.3146 45.0559 44.3146 45.0559 44.3135 45.057C44.6064 44.4595 44.8582 43.8231 45.0552 43.1661C45.2512 42.5038 45.3955 41.8241 45.4682 41.1476C45.4819 40.9766 45.5009 40.8121 45.5061 40.6378C45.5093 40.5523 45.5167 40.4668 45.5156 40.3824C45.5146 40.298 45.5124 40.2136 45.5103 40.1292C45.5103 40.0458 45.5051 39.9646 45.4998 39.8835C45.4945 39.8034 45.4903 39.7233 45.484 39.6432C45.4745 39.5642 45.4661 39.4852 45.4587 39.4073C45.4545 39.3683 45.4503 39.3293 45.445 39.2914C45.4398 39.2525 45.4345 39.2135 45.4292 39.1767C45.4166 39.101 45.406 39.0252 45.3944 38.9505C45.3808 38.8758 45.3671 38.8022 45.3544 38.7308C45.3481 38.694 45.3407 38.6572 45.3344 38.6215C45.326 38.5869 45.3186 38.5511 45.3112 38.5154C45.2954 38.4462 45.2807 38.3758 45.2638 38.3076C45.1974 38.0349 45.1279 37.7784 45.0552 37.5392C44.9098 37.0619 44.7644 36.6549 44.6422 36.314C44.579 36.1441 44.5242 35.9936 44.4705 35.8605C44.421 35.7274 44.3725 35.6148 44.3293 35.5217C44.2461 35.3377 44.1745 35.2392 44.1207 35.249C44.0681 35.2576 44.0343 35.3735 44.0185 35.5813C44.0133 35.67 44.0122 35.7761 44.0143 35.8962C44.0133 35.88 44.0112 35.8648 44.0112 35.8475C44.0101 35.801 44.0048 35.7523 43.9975 35.7046C43.9922 35.6559 43.9869 35.6094 43.9817 35.5607C43.9711 35.4665 43.9585 35.3724 43.948 35.2782C43.9332 35.184 43.9142 35.092 43.8984 35C43.8805 34.9091 43.8637 34.8171 43.8458 34.7273C43.8226 34.6386 43.8015 34.5509 43.7783 34.4643C43.7552 34.3777 43.7341 34.2911 43.7099 34.2067C43.6825 34.1255 43.6561 34.0433 43.6287 33.9621C43.6013 33.8831 43.575 33.8041 43.5476 33.7272C43.5181 33.6515 43.4876 33.5779 43.456 33.5064C43.4265 33.435 43.397 33.3636 43.3675 33.2954C43.3401 33.2261 43.3043 33.1623 43.2716 33.0995C43.2073 32.9739 43.1483 32.8549 43.0862 32.7488C43.0219 32.6428 42.9597 32.5453 42.9029 32.4598C42.8744 32.4155 42.846 32.3754 42.8207 32.3365C42.7912 32.3007 42.7638 32.2661 42.7375 32.2336C42.6858 32.1698 42.6395 32.1178 42.5984 32.0756C42.5194 31.9955 42.4635 31.9609 42.4351 31.976C42.4024 31.8278 42.3666 31.6849 42.3276 31.5485C42.197 31.1156 42.0347 30.7563 41.8894 30.516C41.8535 30.4565 41.8198 30.4024 41.7872 30.358C41.7535 30.3125 41.7229 30.2768 41.6945 30.2476C41.6397 30.1891 41.5944 30.1642 41.5649 30.1783C41.4416 30.2335 41.5986 30.8613 41.6755 31.6849C41.7134 32.0984 41.7345 32.5594 41.7176 33.0183C41.7166 33.133 41.7071 33.2478 41.7018 33.3625C41.6976 33.4188 41.6934 33.4761 41.6881 33.5324C41.685 33.5876 41.6797 33.6439 41.6734 33.7002C41.6544 33.9231 41.6239 34.1374 41.5954 34.3387C41.5354 34.7435 41.45 35.1959 41.3331 35.6451C41.3057 35.7566 41.2741 35.8681 41.2446 35.9795C41.2109 36.0899 41.1814 36.2003 41.1466 36.3086C41.0803 36.5261 41.0065 36.7339 40.9391 36.932C40.8674 37.1279 40.799 37.313 40.7357 37.4796C40.7052 37.563 40.6757 37.6409 40.6472 37.7156C40.6336 37.7513 40.6199 37.787 40.6083 37.8217C40.5967 37.8563 40.5872 37.8855 40.5703 37.9277C40.5408 38.0057 40.5303 38.0684 40.5219 38.1204C40.5134 38.1712 40.5071 38.2135 40.5029 38.247C40.4998 38.2654 40.4976 38.2806 40.4976 38.2957C40.4945 38.3109 40.4934 38.3238 40.4945 38.3358C40.4945 38.3596 40.4987 38.379 40.5103 38.391C40.5208 38.4018 40.5398 38.4061 40.5651 38.4018C40.5777 38.3985 40.5925 38.3953 40.6083 38.3877C40.623 38.3791 40.6409 38.3682 40.6599 38.3563C40.6778 38.3444 40.6947 38.3271 40.7147 38.3098C40.7326 38.2914 40.7505 38.2708 40.7716 38.2492C40.8095 38.2048 40.8453 38.1583 40.8843 38.1193C40.9001 38.1041 40.9275 38.0727 40.9528 38.0446C40.977 38.0154 41.0023 37.9851 41.0297 37.9537C41.0845 37.8898 41.1361 37.8195 41.193 37.7448C41.3046 37.5955 41.4205 37.4212 41.5364 37.2318C41.6481 37.0391 41.764 36.8313 41.8683 36.6095C41.922 36.4991 41.9705 36.3843 42.0221 36.2696C42.0674 36.1516 42.118 36.0347 42.1591 35.9146C42.334 35.4373 42.4562 34.9373 42.5246 34.4849C42.591 34.0314 42.6205 33.514 42.5836 33.0021C42.5731 32.8192 42.551 32.6417 42.5257 32.4642C42.5289 32.4728 42.531 32.4804 42.5341 32.4901C42.5478 32.5334 42.5615 32.5789 42.5763 32.6265C42.6058 32.7218 42.6405 32.8257 42.6785 32.9361C42.7132 33.0475 42.7459 33.1698 42.7849 33.2965C42.8028 33.3603 42.8249 33.4231 42.8396 33.4924C42.8554 33.5606 42.8734 33.6288 42.8913 33.7002C42.9071 33.7705 42.926 33.843 42.9439 33.9156C42.9587 33.9902 42.9734 34.0649 42.9882 34.1418C43.0029 34.2175 43.0177 34.2955 43.0335 34.3745C43.0461 34.4535 43.0546 34.5336 43.0672 34.6147C43.0798 34.6948 43.0914 34.776 43.103 34.8593C43.1093 34.9427 43.1178 35.0249 43.1241 35.1094C43.1304 35.1938 43.142 35.2782 43.1473 35.3637C43.1504 35.4492 43.1525 35.5347 43.1557 35.6213C43.1589 35.6646 43.1599 35.7068 43.161 35.7512C43.1641 35.7945 43.1652 35.8367 43.162 35.88C43.161 35.9666 43.1589 36.0542 43.1578 36.1408C43.1431 36.8346 43.0493 37.524 42.9166 38.1301C42.787 38.7373 42.59 39.4072 42.3329 40.0599C42.079 40.7136 41.7682 41.3457 41.4574 41.8912C40.8422 42.9886 40.2343 43.7354 40.3322 43.8361C40.3554 43.8599 40.4186 43.8394 40.5166 43.7798C40.5651 43.7495 40.623 43.7106 40.6873 43.6619C40.7199 43.637 40.7547 43.611 40.7905 43.5828C40.8242 43.5525 40.8622 43.5212 40.899 43.4876C40.976 43.4194 41.0592 43.3436 41.1477 43.2592C41.2341 43.1748 41.3236 43.0796 41.4195 42.9789C41.5164 42.8793 41.6091 42.7657 41.7092 42.6488C41.7577 42.5904 41.8103 42.5308 41.8599 42.4691C41.9083 42.4053 41.9568 42.3403 42.0074 42.2743C42.4066 41.7472 42.8038 41.1054 43.1241 40.4192C43.1441 40.3759 43.1662 40.3348 43.1841 40.2904L43.241 40.1605C43.2769 40.074 43.3137 39.9863 43.3517 39.8997L43.379 39.8348L43.4033 39.7687C43.4191 39.7244 43.4359 39.68 43.4517 39.6378C43.4844 39.549 43.516 39.4614 43.5476 39.3737C43.6056 39.1984 43.6582 39.023 43.7088 38.8509C43.752 38.6767 43.7962 38.5057 43.8342 38.339C43.9743 37.695 44.0523 36.9526 44.027 36.2101C44.0312 36.2858 44.0375 36.3648 44.0459 36.4482C44.0786 36.814 44.1376 37.248 44.1976 37.7264C44.2271 37.9656 44.2545 38.2145 44.2798 38.4732C44.2851 38.5371 44.2893 38.602 44.2946 38.668C44.2977 38.6994 44.2998 38.733 44.303 38.7665C44.304 38.8001 44.3072 38.8325 44.3083 38.8661C44.3114 38.9321 44.3146 38.9992 44.3188 39.0663C44.3199 39.1323 44.322 39.2005 44.323 39.2698C44.3241 39.3033 44.3262 39.338 44.3262 39.3726C44.3272 39.4062 44.3262 39.4408 44.3262 39.4754C44.3251 39.5447 44.3251 39.614 44.323 39.6832C44.322 39.7525 44.3167 39.8229 44.3135 39.8932C44.3104 39.9625 44.3083 40.0328 44.3009 40.1021C44.2956 40.1714 44.2893 40.2406 44.283 40.311C44.2777 40.3803 44.264 40.4495 44.2545 40.5188C44.2366 40.6573 44.2061 40.8024 44.1818 40.9463C44.067 41.5253 43.8953 42.1152 43.6867 42.6878C43.4749 43.2625 43.2242 43.8199 42.9439 44.3394C42.6658 44.86 42.3571 45.3427 42.0442 45.7767C41.4195 46.649 40.5861 47.5214 39.6222 48.2271C39.1375 48.5767 38.6234 48.8851 38.104 49.1514C37.9713 49.2131 37.8406 49.2748 37.71 49.3365C37.5804 49.4014 37.4466 49.4479 37.316 49.5042C37.2496 49.5323 37.1854 49.5583 37.1211 49.5843C37.0884 49.5984 37.0568 49.6124 37.0242 49.6244C36.9905 49.6384 36.9578 49.6482 36.9262 49.659C36.7945 49.7055 36.6649 49.7499 36.5374 49.7943C36.4289 49.8376 36.3183 49.8679 36.2087 49.8993C36.174 49.9079 36.1413 49.9144 36.1065 49.9231C36.0834 49.9285 36.0623 49.9339 36.0391 49.9382C36.0159 49.9436 35.9917 49.9469 35.9696 49.9501C35.9222 49.9588 35.8737 49.9653 35.8253 49.9739C35.0256 50.1027 34.0005 50.2575 32.9259 50.1471C32.8585 50.1384 32.7911 50.1352 32.7237 50.1255C32.6562 50.1157 32.5888 50.106 32.5203 50.0962C32.4529 50.0843 32.3855 50.0713 32.317 50.0594C32.3012 50.0562 32.2833 50.054 32.2675 50.0497L32.219 50.0389C32.1885 50.0324 32.1558 50.0248 32.1231 50.0183C32.0905 50.0097 32.061 50.0064 32.0262 49.9967C31.9904 49.9869 31.9546 49.9761 31.9198 49.9664C31.8461 49.9458 31.7713 49.9263 31.6975 49.9058C31.55 49.8657 31.4046 49.8267 31.2708 49.7845C31.1339 49.7434 31.0085 49.6958 30.8863 49.646L30.7978 49.6059L30.7767 49.5962L30.7662 49.5908L30.7188 49.5724L30.6809 49.5583L30.6703 49.554L30.6524 49.5453C30.6071 49.5291 30.5544 49.501 30.5028 49.4761C30.3964 49.4198 30.2742 49.3429 30.132 49.2574C30.0624 49.2142 29.9803 49.1676 29.8981 49.1222L29.8317 49.0875L29.8233 49.0832H29.8222V49.0821L29.817 49.0767L29.8043 49.067L29.7949 49.0583L29.7748 49.0431L29.6105 48.9198C29.5578 48.8754 29.5072 48.8288 29.4556 48.7845L29.3787 48.7184C29.3513 48.6968 29.3292 48.6697 29.305 48.6448C29.2565 48.5961 29.207 48.5485 29.1585 48.4987C29.1101 48.4489 29.0648 48.3937 29.0173 48.3407L28.9531 48.2671L28.9447 48.2563L28.9415 48.252C28.9236 48.2227 28.8899 48.174 28.8635 48.1329L28.8403 48.1015L28.8161 48.0669L28.7634 47.9987C28.7476 47.9771 28.7287 47.9532 28.7087 47.9305L28.6876 47.9067L28.6865 47.9056L28.6834 47.9002C28.6823 47.897 28.6834 47.8991 28.6802 47.8948L28.6665 47.8732C28.3747 47.4132 28.165 46.924 28.0323 46.4412C27.8901 45.9207 27.8174 45.3405 27.8521 44.7442C27.8679 44.4465 27.9101 44.1446 27.9765 43.8448C28.0439 43.545 28.1366 43.2473 28.2525 42.9583C28.3684 42.6694 28.5085 42.389 28.6686 42.1217L28.7276 42.0265C28.7308 42.0211 28.7308 42.0156 28.7371 42.0102L28.7434 42.0005C28.7445 41.9994 28.7434 42.0005 28.7466 41.9962L28.7561 41.9853C28.7613 41.9788 28.7687 41.9713 28.774 41.9648C28.8614 41.85 28.9215 41.7418 28.9689 41.6574C28.9994 41.6011 29.0289 41.5437 29.0605 41.4875C29.0521 41.4929 29.0932 41.442 29.1143 41.4117L29.1912 41.3078C29.2934 41.1714 29.3945 41.034 29.4956 40.8998C29.5188 40.8684 29.5431 40.8348 29.5652 40.8034L29.5683 40.798L29.5768 40.7872C29.581 40.7829 29.5957 40.7666 29.6094 40.7526C29.6611 40.6974 29.7116 40.6422 29.7632 40.587C29.8149 40.5329 29.8696 40.482 29.9223 40.4279C29.9476 40.4019 29.975 40.3748 30.0003 40.35C30.0277 40.324 30.0551 40.3002 30.0825 40.2753C30.1372 40.2255 30.191 40.1768 30.2458 40.127C30.3027 40.0815 30.3574 40.0361 30.4122 39.9906C30.8547 39.6259 31.3204 39.3423 31.7565 39.1172C32.1937 38.8932 32.6067 38.7319 32.9565 38.6085C33.1314 38.5436 33.2926 38.4981 33.4337 38.4483C33.576 38.405 33.6992 38.3639 33.7983 38.3282C34.0005 38.26 34.1122 38.1983 34.109 38.1431C34.1059 38.0879 33.9889 38.0424 33.7698 38.0046C33.6613 37.9894 33.5275 37.9797 33.3705 37.9743C33.2135 37.9743 33.0323 37.9743 32.8332 37.9948C32.435 38.0295 31.9556 38.1139 31.4331 38.2806C30.9105 38.4483 30.3406 38.6951 29.779 39.0555C29.7095 39.0999 29.6379 39.1453 29.5673 39.1919C29.4988 39.2417 29.4282 39.2914 29.3587 39.3412C29.325 39.3672 29.2892 39.391 29.2554 39.4192C29.2207 39.4451 29.187 39.4733 29.1533 39.5003C29.0848 39.5555 29.0142 39.6096 28.9478 39.6681C28.8814 39.7265 28.8151 39.7861 28.7487 39.8467L28.6908 39.8975C28.6792 39.9094 28.6665 39.9181 28.6549 39.9322L28.6191 39.9755C28.5907 40.009 28.5612 40.0415 28.5327 40.074C28.4895 40.1227 28.4453 40.1725 28.4021 40.2201C28.3536 40.2168 28.3052 40.219 28.2556 40.2266C26.4193 40.5275 24.582 40.8305 22.7446 41.1325C21.9619 41.2623 21.178 41.3911 20.3953 41.5199C19.7442 41.5254 19.4344 42.3089 19.3354 42.8685C19.151 43.9 19.2617 44.9769 19.4229 46.0018C19.6041 47.1577 19.9212 48.2909 20.3742 49.3635C20.6608 50.0421 21.0495 50.8409 21.6901 51.2381C21.8786 51.3539 22.0778 51.3994 22.2769 51.3831C22.3264 51.3842 22.378 51.382 22.4338 51.3669C24.2754 50.8549 26.1191 50.3441 27.9628 49.8322C28.0639 49.804 28.1629 49.777 28.2641 49.7488C28.2788 49.7607 28.2925 49.7748 28.3073 49.7878C28.341 49.8181 28.3736 49.8516 28.4095 49.8787L28.5169 49.9653C28.5896 50.0216 28.6613 50.0811 28.7361 50.1352L28.9647 50.29L29.0279 50.3333L29.07 50.3614C29.0848 50.3712 29.0953 50.3809 29.1153 50.3895L29.2133 50.4361L29.2554 50.4545C29.3144 50.4837 29.3755 50.5129 29.444 50.5497C29.581 50.6201 29.7359 50.7056 29.9181 50.7857C30.0119 50.8257 30.1067 50.8647 30.211 50.8961L30.2489 50.908L30.2668 50.9134L30.2573 50.9091L30.2879 50.9188L30.4206 50.9675C30.5966 51.026 30.7715 51.0757 30.939 51.1115C31.1075 51.1504 31.2677 51.1796 31.4215 51.2078C31.4984 51.2218 31.5753 51.2359 31.6501 51.2489C31.6901 51.2554 31.7291 51.263 31.7681 51.2695C31.8081 51.276 31.8545 51.2814 31.8956 51.2879C31.9398 51.2933 31.983 51.2987 32.0262 51.3041L32.0894 51.3128L32.1516 51.3182C32.2338 51.3247 32.3159 51.3301 32.396 51.3377C32.4782 51.3409 32.5593 51.3442 32.6383 51.3474C32.7194 51.3517 32.7985 51.3485 32.8775 51.3485C33.1935 51.3452 33.5001 51.3236 33.794 51.2868C33.8583 51.2771 33.9205 51.2662 33.9837 51.2565C33.6782 51.3842 33.3726 51.5119 33.0671 51.6364C32.4908 51.8712 31.9325 52.1061 31.3225 52.2241C30.7104 52.3421 30.1099 52.5022 29.4935 52.5942C28.3389 52.7685 27.0947 52.8475 25.9105 52.802C23.5411 52.709 21.2012 52.1873 18.9951 51.2608C18.029 50.8549 17.0524 50.3224 16.1801 49.6817C15.4669 49.159 14.7104 48.4479 14.0773 47.7065C13.7338 47.306 13.5284 47.03 13.2334 46.5906C12.9563 46.1761 12.7035 45.7432 12.4717 45.2994C11.9828 44.3621 11.6425 43.4584 11.3802 42.3912C11.298 42.0589 11.2285 41.7234 11.1674 41.3879C11.101 41.0177 11.0747 40.8143 11.0399 40.4701C10.9715 39.7785 10.963 39.0804 11.0262 38.3888C11.1347 37.1625 11.5709 35.9135 12.2978 34.8345C12.3526 34.7955 12.4042 34.7544 12.4485 34.6992C12.5254 34.6007 12.6086 34.5065 12.6929 34.4145C12.8562 34.2392 13.0427 34.0747 13.1818 33.9708C13.6 33.6601 13.9477 33.4956 14.4165 33.3657C14.6019 33.3149 14.741 33.1677 14.8031 32.9923C15.293 33.0259 15.7882 32.9934 16.2749 32.9068C16.9407 32.7878 17.5855 32.5443 18.1987 32.2401C19.525 32.8073 21.1317 33.1092 22.3043 32.0464C23.1313 31.2942 23.3567 30.0203 23.1197 28.9531C23.0112 28.4596 22.7689 27.9671 22.4096 27.6165C22.2937 27.5028 22.1673 27.3989 22.0356 27.3015C22.0346 27.2983 22.0324 27.2983 22.0314 27.2972C22.3064 27.1229 22.5719 26.9075 22.8289 26.6489C23.1207 26.3545 23.3736 26.0222 23.617 25.7018C23.6907 25.6055 23.7645 25.5081 23.8403 25.4129C23.8635 25.3826 23.8877 25.3512 23.9119 25.3187C24.1068 25.0611 24.3291 24.771 24.6125 24.8252C24.7495 24.8511 24.9328 24.8295 25.0382 24.6899C25.2889 24.3522 25.5533 23.9929 25.8041 23.6173C25.901 23.4733 25.8778 23.2742 25.8072 23.1519C25.7598 23.0707 25.7008 22.9982 25.6355 22.9322C25.5934 22.8911 25.5491 22.851 25.5038 22.812C25.5007 22.8088 25.4996 22.8077 25.4986 22.8077C25.4533 22.7709 25.4058 22.7341 25.3595 22.6995C25.3353 22.6811 25.311 22.6638 25.2879 22.6465C25.2605 22.627 25.2341 22.6064 25.2088 22.5869C25.1836 22.5685 25.1593 22.5501 25.1361 22.5317C25.0013 22.4267 24.8643 22.3207 24.7232 22.2124C24.7221 22.2124 24.72 22.2114 24.7189 22.2092C24.6473 22.1551 24.5746 22.101 24.5019 22.0479C24.4303 21.9938 24.3597 21.9419 24.287 21.8888C23.8919 21.5998 23.4768 21.3184 23.0333 21.0316C22.8869 20.9375 22.7383 20.8433 22.5856 20.7491C22.3327 20.5911 22.0662 20.4309 21.788 20.2718C21.7311 20.2383 21.6732 20.2069 21.6163 20.1734C21.0369 19.8508 20.4069 19.5413 19.7326 19.2956C19.4819 19.2047 19.228 19.1224 18.9667 19.0521C18.6664 18.9709 18.3609 18.8973 18.0649 18.8269C17.7393 18.749 17.4043 18.6689 17.0777 18.578C16.9565 18.5445 16.848 18.5098 16.7469 18.4741C16.5773 18.4103 16.4319 18.3388 16.297 18.2544C16.2012 18.1949 16.1127 18.1245 16.0263 18.0466C15.9715 17.9979 15.9178 17.9438 15.863 17.8886C15.863 17.8875 15.8619 17.8853 15.8588 17.8842C15.7755 17.7987 15.6934 17.7078 15.608 17.6104C15.4732 17.4567 15.3362 17.3074 15.1972 17.1613C15.1972 17.1602 15.1982 17.1602 15.1982 17.158C15.2467 17.0866 15.2941 17.013 15.3436 16.9426C15.4216 16.829 15.5101 16.7088 15.5659 16.6353C15.6976 16.4642 15.8345 16.2954 15.9768 16.1309C17.7362 17.1245 20.8609 17.6364 23.9636 17.6364C27.2685 17.6364 30.5997 17.0563 32.2791 15.9307L32.4087 16.066C32.4582 16.119 32.5056 16.1753 32.554 16.2305L32.6994 16.3961L32.7711 16.4794C32.7953 16.5086 32.8164 16.5378 32.8406 16.566C32.9312 16.6807 33.0218 16.7965 33.1135 16.9134C33.1999 17.0335 33.2841 17.1537 33.3705 17.2738L33.4348 17.3647C33.4548 17.395 33.4748 17.4264 33.4938 17.4589L33.6139 17.6451C34.2513 18.6462 34.7169 19.7632 35.0056 20.8931C35.2837 22.0241 35.388 23.1735 35.3259 24.2504C35.3217 24.3186 35.3196 24.3847 35.3153 24.4518C35.3143 24.4853 35.3122 24.5178 35.3101 24.5513C35.3069 24.5849 35.3037 24.6174 35.3006 24.6509C35.2869 24.7819 35.2732 24.9139 35.2606 25.0438C35.2563 25.0773 35.2542 25.1087 35.2511 25.1423C35.2458 25.1737 35.2405 25.2061 35.2363 25.2375C35.2258 25.3014 35.2163 25.3652 35.2058 25.428C35.1963 25.4919 35.1868 25.5546 35.1773 25.6174C35.1668 25.6813 35.1584 25.743 35.1447 25.8036C35.1194 25.928 35.093 26.0493 35.0678 26.1694C35.0625 26.1997 35.0551 26.2289 35.0488 26.2592C35.0435 26.2895 35.0372 26.3188 35.0288 26.3491C35.013 26.4075 34.9982 26.467 34.9835 26.5244C34.9529 26.6402 34.9234 26.7571 34.8929 26.8697C34.8571 26.9811 34.8212 27.0926 34.7875 27.2019C34.5094 28.0764 34.1607 28.8243 33.8299 29.425C33.8098 29.464 33.7909 29.5008 33.7709 29.5387C33.7498 29.5744 33.7277 29.609 33.7077 29.6447C33.6655 29.7151 33.6255 29.7833 33.5876 29.8493C33.5475 29.9175 33.5106 29.9824 33.4727 30.0441C33.4348 30.1058 33.3969 30.1653 33.361 30.2238C33.2915 30.3396 33.2199 30.4446 33.1567 30.5431C33.1261 30.5928 33.0966 30.6394 33.0661 30.6838C33.0366 30.7281 33.0092 30.7703 32.9828 30.8104C32.9301 30.8905 32.8859 30.9641 32.8459 31.0258C32.8058 31.0875 32.7732 31.1437 32.7489 31.1892C32.7005 31.2823 32.6826 31.3396 32.7036 31.3591C32.7226 31.3786 32.7774 31.3591 32.8648 31.3039C32.9091 31.2747 32.9607 31.239 33.0208 31.1935C33.0808 31.1481 33.1461 31.0896 33.2199 31.0247C33.2557 30.9911 33.2936 30.9565 33.3358 30.9208C33.3747 30.884 33.4148 30.8418 33.458 30.8006C33.5423 30.7151 33.636 30.6242 33.7287 30.5171C33.7761 30.464 33.8246 30.411 33.8752 30.3536C33.9236 30.2952 33.9721 30.2346 34.0227 30.1729C34.0743 30.109 34.1259 30.0441 34.1786 29.9781C34.206 29.9445 34.2323 29.9099 34.2608 29.8774C34.2881 29.8417 34.3124 29.806 34.3387 29.7681C34.7675 29.1891 35.2226 28.4369 35.6051 27.5223C35.6525 27.4076 35.7009 27.2918 35.7494 27.1738C35.7915 27.0537 35.8337 26.9303 35.879 26.808C35.9001 26.7463 35.9222 26.6835 35.9432 26.6218C35.9538 26.5904 35.9643 26.558 35.9727 26.5266C35.9822 26.4952 35.9917 26.4616 36.0012 26.4302C36.0391 26.3004 36.077 26.1705 36.1139 26.0374C36.1339 25.9724 36.1476 25.9042 36.1634 25.8371C36.1792 25.7689 36.194 25.7008 36.2108 25.6326C36.2266 25.5633 36.2414 25.494 36.2582 25.4248L36.2825 25.3209C36.2877 25.2851 36.2951 25.2505 36.3004 25.2148C36.3246 25.0741 36.3488 24.9301 36.3731 24.7862C36.3794 24.7505 36.3857 24.7148 36.392 24.678C36.3973 24.6423 36.4005 24.6044 36.4057 24.5687C36.4142 24.4951 36.4215 24.4204 36.43 24.3479C36.4595 24.1065 36.4784 23.8576 36.4921 23.6065C36.51 23.5913 36.5279 23.5772 36.5448 23.5599C37.3297 22.6703 37.9133 21.6031 38.7667 20.7859C38.9742 20.5868 39.1565 20.3801 39.3303 20.1485C39.3683 20.0976 39.3904 20.0446 39.4178 19.9894C39.4536 19.9883 39.5579 19.9785 39.5769 19.9785C39.6369 19.9785 39.698 19.9839 39.7581 19.9894C39.6506 19.9796 39.8413 20.0143 39.8424 20.0143C39.9014 20.0283 39.9593 20.0489 40.0172 20.0684C40.033 20.0738 40.0446 20.0781 40.0531 20.0803C40.0625 20.0857 40.0773 20.0943 40.1057 20.1084C40.2185 20.1636 40.3259 20.234 40.4302 20.3076C40.4439 20.3173 40.4555 20.326 40.4692 20.3368C40.4608 20.3325 40.4555 20.3281 40.4534 20.327C40.4639 20.3368 40.505 20.3682 40.5756 20.4223C40.5904 20.4331 40.7221 20.5284 40.7052 20.5078C40.8832 20.6669 41.0497 20.8422 41.2109 21.0197C41.2931 21.1096 41.3721 21.2026 41.4521 21.2957C41.4911 21.3423 41.5291 21.391 41.568 21.4386C41.5786 21.4527 41.6597 21.5587 41.6692 21.5717C41.9663 21.9722 42.2223 22.404 42.4446 22.8521C42.8375 23.6444 43.1863 24.744 43.2621 25.6488C43.3169 26.3004 43.2832 26.9324 43.5634 27.5396C43.6835 27.7994 43.8647 28.0299 44.0438 28.2485C44.126 28.347 44.2145 28.4412 44.3019 28.5343L44.4105 28.6458C44.4252 28.6858 44.4442 28.7237 44.4673 28.7572C44.5579 28.8968 44.6896 29.0116 44.8034 29.1295C44.8782 29.2075 44.9362 29.3125 45.0036 29.4153C45.1701 29.675 45.3428 29.9305 45.4903 30.2032C45.7674 30.7162 45.9644 31.1805 46.1446 31.725C46.3921 32.4739 46.5344 33.2662 46.6534 34.0487C46.6671 34.1374 46.6787 34.2273 46.6913 34.3171C46.6924 34.3225 46.6924 34.3268 46.6945 34.3312V34.3398C46.7008 34.3853 46.7071 34.4307 46.7124 34.4751C46.7366 34.6732 46.7567 34.8702 46.7746 35.0682C46.8093 35.4557 46.8315 35.8421 46.8431 36.2296C46.8631 37.0305 46.8336 37.8238 46.7514 38.6107ZM25.2057 44.6457C25.5849 44.5201 25.9695 44.4162 26.3572 44.3221C26.3435 44.4249 26.333 44.5277 26.3235 44.6305C26.2539 45.412 26.3351 46.1858 26.5268 46.8807C26.7017 47.5225 26.9925 48.1708 27.3928 48.7617L27.4402 48.8332L27.4708 48.8786C27.4813 48.8927 27.495 48.9068 27.5087 48.9219L27.5224 48.936C26.5215 49.2141 25.5217 49.4912 24.5219 49.7694C24.5809 49.6795 24.6378 49.5865 24.6905 49.4901C24.9707 48.9695 25.113 48.3894 25.1899 47.8028C25.3247 46.7551 25.2246 45.6988 25.2057 44.6457ZM26.9387 42.3512C26.7702 42.7094 26.6332 43.0828 26.5279 43.4649C26.5279 43.4692 26.5268 43.4735 26.5247 43.4757C25.9136 43.6121 25.3068 43.7701 24.7168 43.9844C24.5535 44.0439 24.4345 44.1792 24.4345 44.3643C24.4387 46.2345 24.878 48.608 23.3451 49.9512C23.3757 49.7456 23.3926 49.5356 23.4041 49.3321C23.4347 48.8245 23.4052 48.3147 23.3546 47.8104C23.2946 47.2119 23.1955 46.6177 23.0681 46.031C22.8321 44.9704 22.5034 43.9151 22.004 42.9529C21.8955 42.744 21.7691 42.5189 21.6174 42.31C23.0754 42.0708 24.5335 41.8306 25.9916 41.5914C26.5015 41.507 27.0125 41.4225 27.5245 41.3403C27.3022 41.6552 27.1052 41.994 26.9387 42.3512ZM22.1578 49.1709C21.847 48.4089 21.6595 47.5809 21.5405 46.78C21.4583 46.2269 21.4246 45.6576 21.4688 45.0992C21.4751 45.0234 21.4836 44.9412 21.4973 44.86C21.6922 45.5094 21.8607 46.1685 21.984 46.8385C22.0461 47.2389 22.1009 47.6383 22.1336 48.0442C22.161 48.4208 22.1715 48.7964 22.1578 49.1709ZM22.1631 50.4231H22.1568C22.1599 50.4231 22.161 50.4231 22.162 50.422C22.162 50.4231 22.1631 50.4231 22.1631 50.4231ZM20.5596 42.5817C20.6439 42.6553 20.7208 42.7397 20.7924 42.8274C20.8009 42.8371 20.8061 42.8458 20.8104 42.849L20.863 42.9237C20.9147 42.9973 20.961 43.0731 21.0084 43.1499C21.1043 43.3079 21.1896 43.4724 21.2718 43.638C21.3013 43.6986 21.3297 43.7625 21.3582 43.8242C21.3529 43.8285 21.3466 43.8307 21.3392 43.8361C21.0474 44.0861 20.9642 44.531 20.9168 44.8979C20.843 45.4769 20.8778 46.0657 20.9473 46.6436C21.1011 47.9002 21.4288 49.2336 22.0841 50.3235C22.0409 50.2846 22.0008 50.2445 21.9619 50.2023C21.9366 50.1742 21.9134 50.1471 21.8892 50.119C21.8744 50.0995 21.8586 50.08 21.8439 50.0605C21.6005 49.7272 21.413 49.3516 21.2465 48.9739C20.8082 47.9846 20.5238 46.8374 20.3468 45.741C20.2699 45.2734 20.2246 44.8026 20.2067 44.3296C20.1983 44.1164 20.1983 43.9043 20.2067 43.6911C20.2098 43.6023 20.2162 43.5157 20.2225 43.427C20.2267 43.3772 20.2309 43.3274 20.2362 43.2776C20.2372 43.2636 20.2393 43.2538 20.2404 43.2473C20.2404 43.2387 20.2414 43.2311 20.2436 43.2192C20.2667 43.0677 20.2983 42.9161 20.3415 42.7689C20.3479 42.7495 20.3774 42.6704 20.3858 42.6456C20.4058 42.6044 20.4279 42.5644 20.45 42.5254C20.4543 42.5211 20.4585 42.5168 20.4627 42.5113C20.4627 42.5124 20.4627 42.5124 20.4637 42.5124C20.4817 42.5254 20.5354 42.5655 20.5596 42.5817ZM20.4869 42.4994C20.5259 42.4951 20.5112 42.4929 20.4869 42.4994Z" fill="white"/>
</svg>
